<?xml version="1.0" encoding="UTF-8"?>
<svg id="Layer_2" data-name="Layer 2" xmlns="http://www.w3.org/2000/svg" viewBox="0 0 300.91 432">
  <defs>
    <style>
      .cls-1 {
        fill: #6f4e37;
      }

      .cls-2 {
        fill: #fff;
      }

      .cls-3 {
        fill: #3e7b27;
      }

      .cls-4 {
        fill: none;
        stroke: #3e7b27;
        stroke-linecap: round;
        stroke-miterlimit: 10;
        stroke-width: 5.03px;
      }
    </style>
  </defs>
  <g id="Layer_1-2" data-name="Layer 1">
    <g>
      <rect class="cls-2" width="300.91" height="432"/>
      <g>
        <line class="cls-4" x1="151.14" y1="278.03" x2="151.14" y2="372.17"/>
        <path class="cls-3" d="M150.28,281.37c-1.97-.13-15.63-1.28-22.66-12.26-7.35-11.48-3.82-28.06.68-29.16.63-.15,1.64-.1,8.74,7.33,7.36,7.7,11.08,11.54,12.56,15.26,1.04,2.62,3.09,9.11.68,18.85Z"/>
        <path class="cls-3" d="M151.66,279.61c2.68-.62,15.48-3.89,21.54-15.57,6.46-12.45,2.42-28.97-2.28-29.94-1.96-.41-4.88,3.26-10.7,10.58-5.56,7-8.37,10.49-9.7,14.82-.83,2.68-2.59,9.98,1.14,20.11Z"/>
        <path class="cls-1" d="M117.68,387.95c-1.55-5.45,14.9-18.69,32.74-19.03,17.36-.34,34.08,11.58,32.85,17.12-1.13,5.06-17.39,5.39-34.16,5.74-16.79.35-30.16.62-31.43-3.83Z"/>
      </g>
    </g>
  </g>
</svg>