<?xml version="1.0" encoding="UTF-8"?>
<svg id="Layer_2" data-name="Layer 2" xmlns="http://www.w3.org/2000/svg" xmlns:xlink="http://www.w3.org/1999/xlink" viewBox="0 0 300.91 432">
  <defs>
    <style>
      .cls-1 {
        fill: url(#linear-gradient-3);
      }

      .cls-2 {
        fill: url(#linear-gradient-2);
      }

      .cls-3 {
        fill: #6f4e37;
      }

      .cls-4 {
        fill: url(#linear-gradient);
      }

      .cls-5 {
        fill: #fff;
      }

      .cls-6 {
        fill: #3e7b27;
      }

      .cls-7 {
        fill: none;
        stroke: #3e7b27;
        stroke-linecap: round;
        stroke-miterlimit: 10;
        stroke-width: 5.03px;
      }

      .cls-8 {
        fill: #fbb03b;
      }
    </style>
    <linearGradient id="linear-gradient" x1="18.5" y1="144.77" x2="119.96" y2="144.77" gradientUnits="userSpaceOnUse">
      <stop offset="0" stop-color="#85a947"/>
      <stop offset="1" stop-color="#3e7b27"/>
    </linearGradient>
    <linearGradient id="linear-gradient-2" x1="12.63" y1="-13.61" x2="12.63" y2="73.28" gradientTransform="translate(217.56 76.03) rotate(14.52) scale(1.13)" xlink:href="#linear-gradient"/>
    <linearGradient id="linear-gradient-3" x1="-5.15" y1="530.03" x2="-5.15" y2="571.25" gradientTransform="translate(594.97 -355.23) rotate(-145.5) scale(1.38 -1.28)" xlink:href="#linear-gradient"/>
  </defs>
  <g id="Layer_1-2" data-name="Layer 1">
    <g>
      <rect class="cls-5" width="300.91" height="432"/>
      <g>
        <path class="cls-8" d="M97.36,107.16c-1.71-1.27-3.52-2.74-5.37-4.45-4.02-3.69-5.39-6.06-7.7-8.34-2.28-2.26-5.96-4.97-11.94-6.57.99-.58,2.37-1.3,4.1-1.87,10-3.32,19.59,1.94,21.86,3.19,1.86,1.02,3.38,2.08,4.56,2.98-2.81-2.34-4.98-4.58-6.52-6.33-1.49-1.69-6.44-7.31-8.91-13.4-.22-.55-.72-1.83-1.55-3.58-1.13-2.37-2.21-4.19-2.89-5.29,2.25.46,4.08,1.1,5.4,1.64,3.49,1.43,6.08,3.25,7.83,4.5.23.16.93.66,1.84,1.37,2.01,1.57,4.86,4,8.11,7.58-5.87-4.12-8.41-8.63-9.52-11.09-1.2-2.66-2-5.71-2.7-8.39-.86-3.3-1.38-6.11-1.7-8.12,1.32.37,3.16.94,5.32,1.79,2.79,1.09,6.73,2.63,10.22,5.2,4.49,3.31,6.79,7.26,10.07,12.87,1.7,2.91,3.65,6.73,5.41,11.44.1.27-1.38-3.82-1.96-9.2-.67-6.22.48-11.17,1.07-13.62,1.19-4.95,3.07-8.93,4.76-11.82.97.69,2.33,1.76,3.71,3.32,3.06,3.46,4.18,7.01,4.98,9.63,1.4,4.59,1.46,8.31,1.49,11.61.03,3.78-.34,6.94-.72,9.21.67-.95,1.69-2.34,3.03-3.9,2.79-3.27,4.71-4.71,6.11-6.17,1.91-1.98,4.15-5.32,5.37-11.21.65,1.14,1.48,2.77,2.2,4.82,2.14,6.08,1.72,11.31,1.48,14.03-.75,8.37-4.1,14.22-5.65,16.87-2.32,3.96-7.91,13.58-18.84,17.59-16.08,5.91-31.08-4.91-32.91-6.27Z"/>
        <g>
          <path class="cls-7" d="M113.01,161.89c8.37,9.33,22.32,27.31,30.42,53.86,7.6,24.91,6.68,46.29,5.24,58.53"/>
          <path class="cls-7" d="M178.81,143.94c-4.63,7.51-11.44,19.62-17.38,35.43-10.22,27.19-12.62,51.44-13.24,129.74-.14,17.32-.2,39.33,0,64.91"/>
          <path class="cls-4" d="M119.96,167.81c-20.29,8.59-33.1,6.64-40.97,3.4-12.1-4.98-15.71-14.32-33.32-29.81-10.8-9.5-20.72-15.9-27.18-19.73,9.85-3.58,33.98-10.73,60.5-1.75,8.71,2.95,23.08,7.82,32.64,22.26,6.55,9.9,7.99,19.97,8.33,25.63Z"/>
          <path class="cls-2" d="M174.78,150.78c7.28.65,18.32.63,29.97-4.13,17.32-7.08,24.01-19.74,42.6-38.88,7.56-7.79,19.11-18.73,35.06-30.38-11.94-4.2-46.2-14.46-78.88,1.17-7.12,3.41-17.82,8.69-25.31,20.56-13.75,21.8-5.02,47.28-3.44,51.67Z"/>
          <path class="cls-3" d="M114.13,389.95c-1.55-5.45,14.9-18.69,32.74-19.03,17.36-.34,34.08,11.58,32.85,17.12-1.13,5.06-17.39,5.39-34.16,5.74-16.79.35-30.16.62-31.43-3.83Z"/>
          <path class="cls-7" d="M127.62,114.03c11.05,30.89,16.25,57.38,18.86,76.5,3.14,22.98,3.41,41.6,3.41,49.63,0,10.98-.49,20.43-1.06,27.85"/>
          <path class="cls-7" d="M177.64,245.04c-8.88,6.29-19.79,16.49-24.57,31.72-.35,1.13-1.45,4.73-2.74,14.5-1.26,9.51-2.46,22.97-2.02,39.59"/>
          <path class="cls-1" d="M175.85,245.49c10.21,3.56,17.91,1.97,21.11,1.08,9.64-2.69,15.56-9.38,21.31-15.87,4.65-5.25,7.71-10.19,9.59-13.6-7.09-.89-16.98-.96-27.62,2.8-5.15,1.82-10.97,3.95-16.21,9.6-5.63,6.07-7.5,12.75-8.18,16Z"/>
          <path class="cls-6" d="M126.63,114.62c-10.93,2.84-20.19-1.37-25.64-3.85-3.79-1.72-9.58-4.92-15.38-10.77l13.84,5.9c-.81-1.86-1.81-3.85-3.08-5.9-3.58-5.82-7.85-9.87-11.28-12.56,5.9,3.75,11.8,7.51,17.69,11.28,4.27,2.73,8.55,5.47,12.82,8.2-2.25-2.7-4.84-6.28-7.18-10.77-2.67-5.12-4.21-9.86-5.13-13.59,3.74,5.42,7.99,11.1,12.82,16.92,3.28,3.95,6.55,7.62,9.74,11.02-.37-1.68-.79-3.95-1.03-6.67,0,0-.4-4.58,0-8.72.95-9.99,9.78-22.17,10.26-22.82-2.22,5.65-2.89,10.32-3.08,13.59-.24,4.17.25,6.88,0,13.84-.12,3.26-.34,5.93-.51,7.69,3.2-4,6.45-8.02,9.74-12.05,4.54-5.56,9.07-11.03,13.59-16.41-1.1,6.06-3.01,10.81-4.61,14.1-2.03,4.15-4.91,9.88-11.02,14.87-2,1.63-6.22,5.02-12.56,6.67Z"/>
        </g>
      </g>
    </g>
  </g>
</svg>