<?xml version="1.0" encoding="UTF-8"?>
<svg id="Layer_2" data-name="Layer 2" xmlns="http://www.w3.org/2000/svg" xmlns:xlink="http://www.w3.org/1999/xlink" viewBox="0 0 300.91 432">
  <defs>
    <style>
      .cls-1 {
        fill: url(#linear-gradient-4);
      }

      .cls-2 {
        fill: url(#linear-gradient-3);
      }

      .cls-3 {
        fill: url(#linear-gradient-2);
      }

      .cls-4 {
        fill: #6f4e37;
      }

      .cls-5 {
        fill: url(#linear-gradient);
      }

      .cls-6 {
        fill: #fff;
      }

      .cls-7 {
        fill: #3e7b27;
      }

      .cls-8 {
        stroke-width: 3.53px;
      }

      .cls-8, .cls-9 {
        fill: none;
        stroke: #3e7b27;
        stroke-linecap: round;
        stroke-miterlimit: 10;
      }

      .cls-9 {
        stroke-width: 5.03px;
      }
    </style>
    <linearGradient id="linear-gradient" x1="96.18" y1="113.94" x2="96.18" y2="53.56" gradientUnits="userSpaceOnUse">
      <stop offset="0" stop-color="#fbb03b"/>
      <stop offset="1" stop-color="#c3b044"/>
    </linearGradient>
    <linearGradient id="linear-gradient-2" x1="-329.27" y1="1111.28" x2="-329.27" y2="1159.26" gradientTransform="translate(-783.37 -1077.05) rotate(-51.72) scale(1.38 1.28)" gradientUnits="userSpaceOnUse">
      <stop offset="0" stop-color="#85a947"/>
      <stop offset="1" stop-color="#3e7b27"/>
    </linearGradient>
    <linearGradient id="linear-gradient-3" x1="-59.79" y1="-127.57" x2="-110.29" y2="-41.99" gradientTransform="translate(269.67 232.1) rotate(14.52) scale(1.13)" gradientUnits="userSpaceOnUse">
      <stop offset="0" stop-color="#505f27"/>
      <stop offset="1" stop-color="#3e7b27"/>
    </linearGradient>
    <linearGradient id="linear-gradient-4" x1="542.15" y1="-667.11" x2="593.46" y2="-667.11" gradientTransform="translate(-348.65 571.83) rotate(16.45) scale(.68 .7) skewX(-2.69)" gradientUnits="userSpaceOnUse">
      <stop offset="0" stop-color="#3e7b27"/>
      <stop offset="1" stop-color="#85a947"/>
    </linearGradient>
  </defs>
  <g id="Layer_1-2" data-name="Layer 1">
    <g>
      <rect class="cls-6" width="300.91" height="432"/>
      <g>
        <path class="cls-5" d="M79.36,107.28c-1.64-1.09-3.38-2.37-5.15-3.85-4.72-3.93-4.43-5.41-7.34-7.27-5.07-3.24-10.65-2.07-10.72-3.31-.07-1.11,4.32-2.43,6.91-3.01,1.97-.44,10.12-2.27,17.61,1.35,2.5,1.2,4.53,2.67,4.39,2.56-2.7-2.02-4.76-3.97-6.23-5.51-1.42-1.48-6.13-6.38-8.41-11.75-.13-.3-.35-.84-.68-1.58-.34-.76-.53-1.16-.76-1.58-.97-1.78-1.74-1.94-1.58-2.52.21-.78,1.81-1.31,3.03-1.15.55.07.92.3,1.08.36,3.38,1.2,5.87,2.77,7.55,3.84.22.14.89.57,1.76,1.18,1.93,1.36,4.66,3.46,7.75,6.59-1.95-3.65-3.07-6.74-3.73-8.92-.93-3.06-1.09-4.72-2.68-7.23-1.53-2.42-2.85-3.19-2.47-3.85.69-1.2,6.37-.83,10.9,1.58,3.95,2.1,5.76,5.18,9.55,11.26,1.59,2.55,3.42,5.92,5.03,10.08,0,0,0,.01,0,.01,0,0-.03-.09-.03-.09-.04-.1-1.55-5.14-1.69-8.08-.12-2.66.88-3.72,2.29-7.78,3.11-9,1.92-14.59,3.95-15.02.94-.19,1.87.83,3.55,2.88,3.15,3.84,4.36,7.55,4.65,8.48,1.26,4.06,1.24,7.37,1.2,10.31-.05,3.37-.48,6.19-.9,8.22.68-.86,1.7-2.12,3.04-3.55.71-.75,1.36-1.4,1.96-1.97.67-.63,1.28-1.19,1.82-1.67,1.24-1.1,2.16-1.86,2.32-1.99,3.06-2.57,3.99-10.04,5.49-10.1.73-.03,1.25,1.69,2.04,4.25,1.15,3.74,1.3,6.75,1.35,8.07.05,1.35,0,2.8-.2,4.4-.91,7.48-4.31,12.76-5.88,15.16-2.35,3.58-8.01,12.27-18.77,16.08-15.82,5.61-30.23-3.71-31.99-4.88Z"/>
        <path class="cls-8" d="M110.03,182.38c5.04,7.65,13.42,22.4,18.29,44.16,4.57,20.43,4.02,37.96,3.15,47.99"/>
        <path class="cls-9" d="M161.22,144.21c-4.63,7.51-11.44,19.62-17.38,35.43-10.22,27.19-12.62,51.44-13.24,129.74-.14,17.32-.2,39.33,0,64.91"/>
        <path class="cls-3" d="M113.87,185.36c-13.18,8.43-22.44,8.62-28.35,7.38-11.46-2.41-14.78-11.19-27.21-12.39-11.96-1.16-19.62,5.93-20.67,4.25-1.46-2.33,11.89-18.16,31.53-22.53,5.47-1.22,20.2-4.49,32.49,4.74,8.22,6.18,11.18,14.83,12.2,18.56Z"/>
        <path class="cls-2" d="M157.19,151.04c7.62.95,18.84,1.15,29.97-4.13,18.19-8.64,18.61-23.59,37.22-35.3,20.28-12.76,38.29-6.64,38.97-11.51,1.05-7.49-40.32-30.48-74.68-15.54-4.34,1.88-18.85,8.45-27.54,24.91-9.95,18.86-5.17,37.31-3.95,41.57Z"/>
        <path class="cls-4" d="M96.55,390.21c-1.55-5.45,14.9-18.69,32.74-19.03,17.36-.34,34.08,11.58,32.85,17.12-1.13,5.06-17.39,5.39-34.16,5.74-16.79.35-30.16.62-31.43-3.83Z"/>
        <path class="cls-9" d="M110.03,114.29c11.05,30.89,16.25,57.38,18.86,76.5,3.14,22.98,3.41,41.6,3.41,49.63,0,10.98-.49,20.43-1.06,27.85"/>
        <path class="cls-9" d="M160.05,245.31c-8.88,6.29-19.79,16.49-24.57,31.72-.35,1.13-1.45,4.73-2.74,14.5-1.26,9.51-2.46,22.97-2.02,39.59"/>
        <path class="cls-1" d="M156.63,245.49c1.79,1.37,6.58,4.62,13.61,4.8,4.66.12,6.15-2.37,13.01-3.33,6.81-.95,9.54.57,10.27-.83,1.34-2.56-5.82-11.6-15.04-12.77-5.98-.76-10.85,2.04-12.83,3.18-5.08,2.9-7.83,6.94-9.02,8.95Z"/>
        <path class="cls-7" d="M109.04,114.88c-10.93,2.84-20.19-1.37-25.64-3.85-3.79-1.72-9.58-4.92-15.38-10.77,4.61,1.97,9.23,3.93,13.84,5.9-.81-1.86-1.81-3.85-3.08-5.9-3.58-5.82-7.85-9.87-11.28-12.56,5.9,3.75,11.8,7.51,17.69,11.28,4.27,2.73,8.55,5.47,12.82,8.2-2.25-2.7-4.84-6.28-7.18-10.77-2.67-5.12-4.21-9.86-5.13-13.59,3.74,5.42,7.99,11.1,12.82,16.92,3.28,3.95,6.55,7.62,9.74,11.02-.37-1.68-.79-3.95-1.03-6.67,0,0-.4-4.58,0-8.72.95-9.99,9.78-22.17,10.26-22.82-2.22,5.65-2.89,10.32-3.08,13.59-.24,4.17.25,6.88,0,13.84-.12,3.26-.34,5.93-.51,7.69,3.2-4,6.45-8.02,9.74-12.05,4.54-5.56,9.07-11.03,13.59-16.41-1.1,6.06-3.01,10.81-4.61,14.1-2.03,4.15-4.91,9.88-11.02,14.87-2,1.63-6.22,5.02-12.56,6.67Z"/>
      </g>
    </g>
  </g>
</svg>