<?xml version="1.0" encoding="UTF-8"?>
<svg xmlns="http://www.w3.org/2000/svg" xmlns:xlink="http://www.w3.org/1999/xlink" width="24px" height="58px" viewBox="0 0 24 57" version="1.1">
<g id="surface1">
<path style="fill:none;stroke-width:5.03;stroke-linecap:round;stroke-linejoin:miter;stroke:rgb(24.313726%,48.235294%,15.294118%);stroke-opacity:1;stroke-miterlimit:10;" d="M 33.572712 43.960147 L 33.572712 138.090906 " transform="matrix(0.363913,0,0,0.361034,0.0363686,0)"/>
<path style=" stroke:none;fill-rule:nonzero;fill:rgb(24.313726%,48.235294%,15.294118%);fill-opacity:1;" d="M 11.9375 17.078125 C 11.21875 17.03125 6.25 16.613281 3.691406 12.652344 C 1.015625 8.507812 2.300781 2.519531 3.9375 2.121094 C 4.167969 2.070312 4.535156 2.085938 7.117188 4.769531 C 9.796875 7.550781 11.148438 8.9375 11.6875 10.277344 C 12.066406 11.222656 12.8125 13.566406 11.9375 17.085938 Z M 11.9375 17.078125 "/>
<path style=" stroke:none;fill-rule:nonzero;fill:rgb(24.313726%,48.235294%,15.294118%);fill-opacity:1;" d="M 12.4375 16.441406 C 13.414062 16.21875 18.070312 15.035156 20.277344 10.820312 C 22.628906 6.324219 21.15625 0.359375 19.449219 0.0117188 C 18.734375 -0.136719 17.671875 1.1875 15.554688 3.832031 C 13.53125 6.359375 12.507812 7.617188 12.023438 9.179688 C 11.722656 10.148438 11.082031 12.785156 12.4375 16.441406 Z M 12.4375 16.441406 "/>
<path style=" stroke:none;fill-rule:nonzero;fill:rgb(43.529412%,30.588236%,21.568628%);fill-opacity:1;" d="M 0.0742188 55.554688 C -0.492188 53.589844 5.496094 48.808594 11.988281 48.683594 C 18.304688 48.5625 24.390625 52.867188 23.941406 54.867188 C 23.53125 56.691406 17.613281 56.8125 11.511719 56.9375 C 5.402344 57.066406 0.535156 57.164062 0.0742188 55.554688 Z M 0.0742188 55.554688 "/>
</g>
</svg>
