<?xml version="1.0" encoding="UTF-8"?>
<svg id="Layer_2" data-name="Layer 2" xmlns="http://www.w3.org/2000/svg" xmlns:xlink="http://www.w3.org/1999/xlink" viewBox="0 0 124.01 224.26">
  <defs>
    <style>
      .cls-1 {
        fill: url(#linear-gradient-2);
      }

      .cls-2 {
        fill: #6f4e37;
      }

      .cls-3 {
        fill: url(#linear-gradient);
      }

      .cls-4 {
        fill: none;
        stroke: #3e7b27;
        stroke-linecap: round;
        stroke-miterlimit: 10;
        stroke-width: 5.03px;
      }
    </style>
    <linearGradient id="linear-gradient" x1="25.49" y1="3.57" x2="25.49" y2="56.76" gradientUnits="userSpaceOnUse">
      <stop offset="0" stop-color="#85a947"/>
      <stop offset="1" stop-color="#3e7b27"/>
    </linearGradient>
    <linearGradient id="linear-gradient-2" x1="93.14" y1="0" x2="93.14" y2="67.31" xlink:href="#linear-gradient"/>
  </defs>
  <g id="Layer_1-2" data-name="Layer 1">
    <g>
      <path class="cls-4" d="M46.15,47.94c4.34,10.24,8.83,23.4,11.7,39.09,2.22,12.16,2.96,23.13,3.01,32.41"/>
      <path class="cls-4" d="M65.87,62.97c-2.06,18.04-3.77,36.88-5.01,56.47-1.83,28.74-2.46,56.06-2.23,81.79"/>
      <path class="cls-3" d="M50.7,56.49c-1.88.25-23.95,2.8-39.42-14.42C-3.25,25.89.24,5.84.68,3.57c3.94,1.25,9.76,3.27,16.57,6.32,12.92,5.78,20.29,9.08,25.76,15.72,8.16,9.91,8.46,22.86,7.69,30.88Z"/>
      <path class="cls-1" d="M64.4,67.31c4.45-.12,25.54-1.14,42.31-18.27C126.16,29.17,124.13,3.65,123.78,0c-7.16.7-18.28,2.61-30.53,8.41-8.21,3.89-16.81,7.96-23.07,16.4-12.08,16.27-7.07,37.53-5.77,42.49Z"/>
      <path class="cls-2" d="M25.37,220.27c-1.55-5.45,14.9-18.69,32.74-19.03,17.36-.34,34.08,11.58,32.85,17.12-1.13,5.06-17.39,5.39-34.16,5.74-16.79.35-30.16.62-31.43-3.83Z"/>
    </g>
  </g>
</svg>