<?xml version="1.0" encoding="UTF-8"?>
<svg id="Layer_2" data-name="Layer 2" xmlns="http://www.w3.org/2000/svg" xmlns:xlink="http://www.w3.org/1999/xlink" viewBox="0 0 180.94 273.08">
  <defs>
    <style>
      .cls-1 {
        fill: url(#linear-gradient-2);
      }

      .cls-2 {
        fill: #6f4e37;
      }

      .cls-3 {
        fill: url(#linear-gradient);
      }

      .cls-4 {
        fill: #3e7b27;
      }

      .cls-5 {
        fill: none;
        stroke: #3e7b27;
        stroke-linecap: round;
        stroke-miterlimit: 10;
        stroke-width: 5.03px;
      }
    </style>
    <linearGradient id="linear-gradient" x1="172.43" y1="215.45" x2="172.43" y2="278.76" gradientTransform="translate(-339.91 -56.24) rotate(-36.39) scale(1.38 1.28)" gradientUnits="userSpaceOnUse">
      <stop offset="0" stop-color="#85a947"/>
      <stop offset="1" stop-color="#3e7b27"/>
    </linearGradient>
    <linearGradient id="linear-gradient-2" x1="140.39" y1="11.47" x2="140.39" y2="79.62" gradientTransform="matrix(1,0,0,1,0,0)" xlink:href="#linear-gradient"/>
  </defs>
  <g id="Layer_1-2" data-name="Layer 1">
    <g>
      <g>
        <path class="cls-5" d="M76.16,79.62c2.22,4.52,4.37,9.61,6.21,15.26,5.88,17.99,6.35,34.29,5.51,46.09"/>
        <path class="cls-5" d="M106.53,70.23c-3.57,7.1-8.65,18.3-12.74,32.65-6.52,22.88-6.66,44.02-6.67,85.36,0,22.42,0,53.9,0,64.91"/>
        <path class="cls-3" d="M78.34,79.5c-5.98,3.42-16.25,7.88-28.71,6.56C27.43,83.7,7.46,63.97,0,36.4c4.39-.19,10.64-.23,18.1.48,17.2,1.64,41.14,3.92,53.11,20.71,2.66,3.74,6.5,10.67,7.12,21.91Z"/>
        <path class="cls-1" d="M101.98,78.98c10.8,1.49,19.37.13,25.4-1.56,40.31-11.32,52.67-61.75,53.56-65.61-23.98-1.82-41.17,4.25-50.11,8.28-8.56,3.86-16.78,7.69-23.07,16.4-12.11,16.77-7.03,37.77-5.77,42.49Z"/>
        <path class="cls-2" d="M53.07,269.08c-1.55-5.45,14.9-18.69,32.74-19.03,17.36-.34,34.08,11.58,32.85,17.12-1.13,5.06-17.39,5.39-34.16,5.74-16.79.35-30.16.62-31.43-3.83Z"/>
        <path class="cls-5" d="M78.27,33.99c3.82,9.99,7.55,22.23,9.94,36.43,4.09,24.35,2.72,45.32.44,60.37"/>
      </g>
      <path class="cls-4" d="M80.49,36.67c-2.15-.22-8.97-1.22-13.93-6.84-5.12-5.8-5.32-13.18-5.34-14.5-.02-2.26.34-4,.28-8.9-.04-2.73-.19-4.97-.31-6.43,1.23.69,3.08,1.7,5.37,2.89,9.36,4.85,10.59,4.53,12.54,6.61,3.59,3.83,3.58,9.34,3.57,14.78-.01,5.4-1.22,9.72-2.17,12.4Z"/>
    </g>
  </g>
</svg>