<?xml version="1.0" encoding="UTF-8"?>
<svg id="Layer_2" data-name="Layer 2" xmlns="http://www.w3.org/2000/svg" xmlns:xlink="http://www.w3.org/1999/xlink" viewBox="0 0 116.32 169.26">
  <defs>
    <style>
      .cls-1 {
        fill: url(#linear-gradient-2);
      }

      .cls-2 {
        fill: #6f4e37;
      }

      .cls-3 {
        fill: url(#linear-gradient);
      }

      .cls-4 {
        stroke: #005337;
        stroke-width: 3.83px;
      }

      .cls-4, .cls-5, .cls-6 {
        fill: none;
        stroke-linecap: round;
        stroke-miterlimit: 10;
      }

      .cls-5 {
        stroke-width: 2.53px;
      }

      .cls-5, .cls-6 {
        stroke: #3e7b27;
      }

      .cls-6 {
        stroke-width: 4.67px;
      }

      .cls-7 {
        fill: #3e4b27;
      }
    </style>
    <linearGradient id="linear-gradient" x1="-352.86" y1="91.13" x2="-352.86" y2="125.33" gradientTransform="translate(-50.51 -397.57) rotate(-86.45) scale(1.35 .94)" gradientUnits="userSpaceOnUse">
      <stop offset="0" stop-color="#504a48"/>
      <stop offset="1" stop-color="#3e7b27"/>
    </linearGradient>
    <linearGradient id="linear-gradient-2" x1="133.72" y1="-187.86" x2="101.88" y2="-133.91" gradientTransform="translate(-97.66 -17.3) rotate(65.01) scale(1.04 .92)" gradientUnits="userSpaceOnUse">
      <stop offset="0" stop-color="#505f27"/>
      <stop offset="1" stop-color="#3e7b27"/>
    </linearGradient>
  </defs>
  <g id="Layer_1-2" data-name="Layer 1">
    <g>
      <path class="cls-4" d="M22.72,10.8c2.51,1.19,6.38,3.39,9.84,7.29,6.47,7.28,7.39,15.94,8.96,32.96,1.04,11.28,1.56,16.91.55,24.79-.87,6.7-2.34,11.29-2.13,19.39.15,5.83,1.09,10.6,1.89,13.82"/>
      <path class="cls-5" d="M29.31,66.28c2.42-.47,6.27-.8,8.71,1.41,2.68,2.43,2.18,6.57,1.89,12.84-.22,4.8-.37,11.7.08,20.29"/>
      <path class="cls-6" d="M61.07,12.77c-4.66,5.48-7.56,10.34-9.2,13.38-11.01,20.34-6.54,34.29-11.26,59.23-.43,2.25-1.57,8-.61,15.45.55,4.25,1.55,7.26,1.84,8.22,1.75,5.69,2.34,16.09-2.89,36.73"/>
      <path class="cls-3" d="M38.28,69.88c-5.01,11.57-9.75,15.64-13.17,17.2-5.54,2.53-9.36-.73-14.34,3.82-4.52,4.12-5.83,10.23-6.35,9.92-.67-.41.93-11.24,6.82-19.94,1.1-1.63,4.63-4.82,11.68-11.2,4.08-3.69,5.82-5.09,8.18-5.01,3.5.12,6.02,3.42,7.18,5.21Z"/>
      <path class="cls-1" d="M58.94,11.41c2.87,3.62,7.71,8.81,14.72,12.18,12.05,5.78,18.7.49,27.04,5.7,12.78,7.99,12.69,30.12,14.32,29.94,1.91-.21,3.85-30.87-10.88-42.21-2.35-1.81-1.45-.3-20.06-8.31-6.04-2.6-8.97-3.98-12.98-3.71-5.73.39-9.82,3.88-12.16,6.41Z"/>
      <path class="cls-2" d="M7.38,165.18c-1.55-5.56,14.9-19.04,32.74-19.39,17.36-.34,34.08,11.8,32.85,17.44-1.13,5.16-17.39,5.5-34.16,5.85-16.79.35-30.16.63-31.43-3.9Z"/>
      <path class="cls-7" d="M23.67,12.01c-4.02,5.66-10.12,7.35-12.91,7.81-3.43.57-6.5.23-8.67-.21,2.05-.48,4.09-.95,6.14-1.43-.83-.44-2.07-1.04-3.61-1.53C1.79,15.74.08,15.85,0,15.5c-.15-.65,5.56-1.6,6.98-1.82,3.58-.57,6.62-.88,8.84-1.05-.66-.41-1.68-.93-3-1.14-1.58-.25-2.9-.07-3.02-.49-.05-.2.2-.34.81-1.04.82-.94.83-1.21,1.14-1.47.89-.74,2.55,0,4.32.6,1.34.46,3.24.99,5.68,1.34-.8-.62-1.85-1.5-2.99-2.65h0s0,0,0,0c0,0-.44-2.38-.68-3.09-.39-1.15-1.39-1.35-1.25-1.72.19-.5,2.11-.5,3.58.28,1.88,1,2.51,3.01,2.69,3.69.72-1.74.94-3.17,1.01-4.16.09-1.24-.05-2.02.5-2.47.67-.54,2.05-.33,2.46.35.16.26.04.48-.09,1.81-.05.59-.14,1.2-.25,1.83-.27,1.49-.88,4.6-3.08,7.72Z"/>
    </g>
  </g>
</svg>