<?xml version="1.0" encoding="UTF-8"?>
<svg id="Layer_2" data-name="Layer 2" xmlns="http://www.w3.org/2000/svg" viewBox="0 0 83.06 121.48">
  <defs>
    <style>
      .cls-1 {
        fill: #3e4f27;
      }

      .cls-2 {
        stroke: #3e4427;
        stroke-width: 4.67px;
      }

      .cls-2, .cls-3 {
        fill: none;
        stroke-linecap: round;
        stroke-miterlimit: 10;
      }

      .cls-4 {
        fill: #6f4e37;
      }

      .cls-5 {
        fill: #3e4727;
      }

      .cls-3 {
        stroke: #3e7b27;
        stroke-width: 2.53px;
      }
    </style>
  </defs>
  <g id="Layer_1-2" data-name="Layer 1">
    <g>
      <path class="cls-3" d="M27.31,19.51c.96-.19,2.3-.29,3.44.41,2.91,1.79,2.23,7.42,1.89,12.84-.31,4.76-.51,11.64.08,20.29"/>
      <path class="cls-2" d="M44.34,4.63c-4.49,4.06-7,8.22-8.45,11.75-2.09,5.09-.51,5.26-2.56,21.22,0,0-1.3,10.13-.61,15.45.32,2.47.79,4.53,1.19,6,.33,1.23.62,2.12.66,2.22.73,2.26.32,11.7-2.89,36.73"/>
      <path class="cls-5" d="M32.88,22.64c-3.7,10.14-7.13,13.73-9.6,15.13-3.99,2.26-6.7-.54-10.31,3.47-3.28,3.64-4.28,8.98-4.64,8.71-.48-.35.77-9.81,5.08-17.45.81-1.43,3.36-4.25,8.47-9.88,2.96-3.26,4.22-4.49,5.91-4.45,2.5.07,4.28,2.92,5.09,4.48Z"/>
      <path class="cls-1" d="M41.1,4.71c2.1,2.65,5.64,6.44,10.76,8.9,8.81,4.23,13.67.36,19.77,4.17,9.35,5.84,9.28,22.03,10.47,21.9,1.4-.15,2.82-22.57-7.95-30.87-1.72-1.32-1.06-.22-14.67-6.08C55.07.84,52.93-.17,49.99.02c-4.19.28-7.18,2.84-8.89,4.69Z"/>
      <path class="cls-4" d="M.1,117.4c-1.55-5.56,14.9-19.04,32.74-19.39,17.36-.34,34.08,11.8,32.85,17.44-1.13,5.16-17.39,5.5-34.16,5.85-16.79.35-30.16.63-31.43-3.9Z"/>
    </g>
  </g>
</svg>